<?xml version="1.0" encoding="UTF-8" standalone="no"?>
<!DOCTYPE svg PUBLIC "-//W3C//DTD SVG 1.1//EN"
 "http://www.w3.org/Graphics/SVG/1.1/DTD/svg11.dtd">
<!-- Generated by graphviz version 2.47.3 (20210619.1520)
 -->
<!-- Title: dependencies Pages: 1 -->
<svg width="274pt" height="247pt"
 viewBox="0.00 0.00 274.00 246.80" xmlns="http://www.w3.org/2000/svg" xmlns:xlink="http://www.w3.org/1999/xlink">
<g id="graph0" class="graph" transform="scale(1 1) rotate(0) translate(4 242.8)">
<title>dependencies</title>
<polygon fill="white" stroke="transparent" points="-4,4 -4,-242.8 270,-242.8 270,4 -4,4"/>
<text text-anchor="middle" x="133" y="-8.2" font-family="sans-serif" font-size="14.00">dependencies</text>
<g id="clust1" class="cluster">
<title>cluster_ToolbarLanguageSelectModule</title>
<polygon fill="none" stroke="black" stroke-dasharray="1,5" points="8,-32.8 8,-230.8 258,-230.8 258,-32.8 8,-32.8"/>
</g>
<g id="clust5" class="cluster">
<title>cluster_ToolbarLanguageSelectModule_exports</title>
<polygon fill="none" stroke="black" points="16,-170.8 16,-222.8 250,-222.8 250,-170.8 16,-170.8"/>
</g>
<g id="clust2" class="cluster">
<title>cluster_ToolbarLanguageSelectModule_declarations</title>
<polygon fill="none" stroke="black" points="17,-40.8 17,-92.8 249,-92.8 249,-40.8 17,-40.8"/>
</g>
<!-- ToolbarLanguageSelectComponent -->
<g id="node1" class="node">
<title>ToolbarLanguageSelectComponent</title>
<polygon fill="#ffffb3" stroke="black" points="240.55,-84.8 25.45,-84.8 25.45,-48.8 240.55,-48.8 240.55,-84.8"/>
<text text-anchor="middle" x="133" y="-62.6" font-family="Times,serif" font-size="14.00">ToolbarLanguageSelectComponent</text>
</g>
<!-- ToolbarLanguageSelectModule -->
<g id="node2" class="node">
<title>ToolbarLanguageSelectModule</title>
<polygon fill="#8dd3c7" stroke="black" points="229.77,-149.8 226.77,-153.8 205.77,-153.8 202.77,-149.8 36.23,-149.8 36.23,-113.8 229.77,-113.8 229.77,-149.8"/>
<text text-anchor="middle" x="133" y="-127.6" font-family="Times,serif" font-size="14.00">ToolbarLanguageSelectModule</text>
</g>
<!-- ToolbarLanguageSelectComponent&#45;&gt;ToolbarLanguageSelectModule -->
<g id="edge1" class="edge">
<title>ToolbarLanguageSelectComponent&#45;&gt;ToolbarLanguageSelectModule</title>
<path fill="none" stroke="black" d="M133,-84.91C133,-84.91 133,-103.79 133,-103.79"/>
<polygon fill="black" stroke="black" points="129.5,-103.79 133,-113.79 136.5,-103.79 129.5,-103.79"/>
</g>
<!-- ToolbarLanguageSelectComponent  -->
<g id="node3" class="node">
<title>ToolbarLanguageSelectComponent </title>
<polygon fill="#fb8072" stroke="black" points="242.06,-214.8 23.94,-214.8 23.94,-178.8 242.06,-178.8 242.06,-214.8"/>
<text text-anchor="middle" x="133" y="-192.6" font-family="Times,serif" font-size="14.00">ToolbarLanguageSelectComponent </text>
</g>
<!-- ToolbarLanguageSelectModule&#45;&gt;ToolbarLanguageSelectComponent  -->
<g id="edge2" class="edge">
<title>ToolbarLanguageSelectModule&#45;&gt;ToolbarLanguageSelectComponent </title>
<path fill="none" stroke="black" stroke-dasharray="5,2" d="M133,-149.91C133,-149.91 133,-168.79 133,-168.79"/>
<polygon fill="black" stroke="black" points="129.5,-168.79 133,-178.79 136.5,-168.79 129.5,-168.79"/>
</g>
</g>
</svg>
