<?xml version="1.0" encoding="UTF-8" standalone="no"?>
<!DOCTYPE svg PUBLIC "-//W3C//DTD SVG 1.1//EN"
 "http://www.w3.org/Graphics/SVG/1.1/DTD/svg11.dtd">
<!-- Generated by graphviz version 2.47.3 (20210619.1520)
 -->
<!-- Title: dependencies Pages: 1 -->
<svg width="224pt" height="247pt"
 viewBox="0.00 0.00 224.00 246.80" xmlns="http://www.w3.org/2000/svg" xmlns:xlink="http://www.w3.org/1999/xlink">
<g id="graph0" class="graph" transform="scale(1 1) rotate(0) translate(4 242.8)">
<title>dependencies</title>
<polygon fill="white" stroke="transparent" points="-4,4 -4,-242.8 220,-242.8 220,4 -4,4"/>
<text text-anchor="middle" x="108" y="-8.2" font-family="sans-serif" font-size="14.00">dependencies</text>
<g id="clust1" class="cluster">
<title>cluster_PasswordInputModule</title>
<polygon fill="none" stroke="black" stroke-dasharray="1,5" points="8,-32.8 8,-230.8 208,-230.8 208,-32.8 8,-32.8"/>
</g>
<g id="clust5" class="cluster">
<title>cluster_PasswordInputModule_exports</title>
<polygon fill="none" stroke="black" points="16,-170.8 16,-222.8 200,-222.8 200,-170.8 16,-170.8"/>
</g>
<g id="clust2" class="cluster">
<title>cluster_PasswordInputModule_declarations</title>
<polygon fill="none" stroke="black" points="18,-40.8 18,-92.8 198,-92.8 198,-40.8 18,-40.8"/>
</g>
<!-- PasswordInputComponent -->
<g id="node1" class="node">
<title>PasswordInputComponent</title>
<polygon fill="#ffffb3" stroke="black" points="190.04,-84.8 25.96,-84.8 25.96,-48.8 190.04,-48.8 190.04,-84.8"/>
<text text-anchor="middle" x="108" y="-62.6" font-family="Times,serif" font-size="14.00">PasswordInputComponent</text>
</g>
<!-- PasswordInputModule -->
<g id="node2" class="node">
<title>PasswordInputModule</title>
<polygon fill="#8dd3c7" stroke="black" points="179.25,-149.8 176.25,-153.8 155.25,-153.8 152.25,-149.8 36.75,-149.8 36.75,-113.8 179.25,-113.8 179.25,-149.8"/>
<text text-anchor="middle" x="108" y="-127.6" font-family="Times,serif" font-size="14.00">PasswordInputModule</text>
</g>
<!-- PasswordInputComponent&#45;&gt;PasswordInputModule -->
<g id="edge1" class="edge">
<title>PasswordInputComponent&#45;&gt;PasswordInputModule</title>
<path fill="none" stroke="black" d="M108,-84.91C108,-84.91 108,-103.79 108,-103.79"/>
<polygon fill="black" stroke="black" points="104.5,-103.79 108,-113.79 111.5,-103.79 104.5,-103.79"/>
</g>
<!-- PasswordInputComponent  -->
<g id="node3" class="node">
<title>PasswordInputComponent </title>
<polygon fill="#fb8072" stroke="black" points="192.04,-214.8 23.96,-214.8 23.96,-178.8 192.04,-178.8 192.04,-214.8"/>
<text text-anchor="middle" x="108" y="-192.6" font-family="Times,serif" font-size="14.00">PasswordInputComponent </text>
</g>
<!-- PasswordInputModule&#45;&gt;PasswordInputComponent  -->
<g id="edge2" class="edge">
<title>PasswordInputModule&#45;&gt;PasswordInputComponent </title>
<path fill="none" stroke="black" stroke-dasharray="5,2" d="M108,-149.91C108,-149.91 108,-168.79 108,-168.79"/>
<polygon fill="black" stroke="black" points="104.5,-168.79 108,-178.79 111.5,-168.79 104.5,-168.79"/>
</g>
</g>
</svg>
