<?xml version="1.0" encoding="UTF-8" standalone="no"?>
<!DOCTYPE svg PUBLIC "-//W3C//DTD SVG 1.1//EN"
 "http://www.w3.org/Graphics/SVG/1.1/DTD/svg11.dtd">
<!-- Generated by graphviz version 2.47.3 (20210619.1520)
 -->
<!-- Title: dependencies Pages: 1 -->
<svg width="340pt" height="247pt"
 viewBox="0.00 0.00 340.00 246.80" xmlns="http://www.w3.org/2000/svg" xmlns:xlink="http://www.w3.org/1999/xlink">
<g id="graph0" class="graph" transform="scale(1 1) rotate(0) translate(4 242.8)">
<title>dependencies</title>
<polygon fill="white" stroke="transparent" points="-4,4 -4,-242.8 336,-242.8 336,4 -4,4"/>
<text text-anchor="middle" x="166" y="-8.2" font-family="sans-serif" font-size="14.00">dependencies</text>
<g id="clust1" class="cluster">
<title>cluster_ToolbarMenuDeviceSettingsModalModule</title>
<polygon fill="none" stroke="black" stroke-dasharray="1,5" points="8,-32.8 8,-230.8 324,-230.8 324,-32.8 8,-32.8"/>
</g>
<g id="clust5" class="cluster">
<title>cluster_ToolbarMenuDeviceSettingsModalModule_exports</title>
<polygon fill="none" stroke="black" points="16,-170.8 16,-222.8 316,-222.8 316,-170.8 16,-170.8"/>
</g>
<g id="clust2" class="cluster">
<title>cluster_ToolbarMenuDeviceSettingsModalModule_declarations</title>
<polygon fill="none" stroke="black" points="18,-40.8 18,-92.8 314,-92.8 314,-40.8 18,-40.8"/>
</g>
<!-- ToolbarMenuDeviceSettingsModalComponent -->
<g id="node1" class="node">
<title>ToolbarMenuDeviceSettingsModalComponent</title>
<polygon fill="#ffffb3" stroke="black" points="305.61,-84.8 26.39,-84.8 26.39,-48.8 305.61,-48.8 305.61,-84.8"/>
<text text-anchor="middle" x="166" y="-62.6" font-family="Times,serif" font-size="14.00">ToolbarMenuDeviceSettingsModalComponent</text>
</g>
<!-- ToolbarMenuDeviceSettingsModalModule -->
<g id="node2" class="node">
<title>ToolbarMenuDeviceSettingsModalModule</title>
<polygon fill="#8dd3c7" stroke="black" points="294.83,-149.8 291.83,-153.8 270.83,-153.8 267.83,-149.8 37.17,-149.8 37.17,-113.8 294.83,-113.8 294.83,-149.8"/>
<text text-anchor="middle" x="166" y="-127.6" font-family="Times,serif" font-size="14.00">ToolbarMenuDeviceSettingsModalModule</text>
</g>
<!-- ToolbarMenuDeviceSettingsModalComponent&#45;&gt;ToolbarMenuDeviceSettingsModalModule -->
<g id="edge1" class="edge">
<title>ToolbarMenuDeviceSettingsModalComponent&#45;&gt;ToolbarMenuDeviceSettingsModalModule</title>
<path fill="none" stroke="black" d="M166,-84.91C166,-84.91 166,-103.79 166,-103.79"/>
<polygon fill="black" stroke="black" points="162.5,-103.79 166,-113.79 169.5,-103.79 162.5,-103.79"/>
</g>
<!-- ToolbarMenuDeviceSettingsModalComponent  -->
<g id="node3" class="node">
<title>ToolbarMenuDeviceSettingsModalComponent </title>
<polygon fill="#fb8072" stroke="black" points="307.61,-214.8 24.39,-214.8 24.39,-178.8 307.61,-178.8 307.61,-214.8"/>
<text text-anchor="middle" x="166" y="-192.6" font-family="Times,serif" font-size="14.00">ToolbarMenuDeviceSettingsModalComponent </text>
</g>
<!-- ToolbarMenuDeviceSettingsModalModule&#45;&gt;ToolbarMenuDeviceSettingsModalComponent  -->
<g id="edge2" class="edge">
<title>ToolbarMenuDeviceSettingsModalModule&#45;&gt;ToolbarMenuDeviceSettingsModalComponent </title>
<path fill="none" stroke="black" stroke-dasharray="5,2" d="M166,-149.91C166,-149.91 166,-168.79 166,-168.79"/>
<polygon fill="black" stroke="black" points="162.5,-168.79 166,-178.79 169.5,-168.79 162.5,-168.79"/>
</g>
</g>
</svg>
