<?xml version="1.0" encoding="UTF-8" standalone="no"?>
<!DOCTYPE svg PUBLIC "-//W3C//DTD SVG 1.1//EN"
 "http://www.w3.org/Graphics/SVG/1.1/DTD/svg11.dtd">
<!-- Generated by graphviz version 2.47.3 (20210619.1520)
 -->
<!-- Title: dependencies Pages: 1 -->
<svg width="782pt" height="174pt"
 viewBox="0.00 0.00 782.00 173.80" xmlns="http://www.w3.org/2000/svg" xmlns:xlink="http://www.w3.org/1999/xlink">
<g id="graph0" class="graph" transform="scale(1 1) rotate(0) translate(4 169.8)">
<title>dependencies</title>
<polygon fill="white" stroke="transparent" points="-4,4 -4,-169.8 778,-169.8 778,4 -4,4"/>
<text text-anchor="middle" x="387" y="-8.2" font-family="sans-serif" font-size="14.00">dependencies</text>
<g id="clust1" class="cluster">
<title>cluster_ActivityModule</title>
<polygon fill="none" stroke="black" stroke-dasharray="1,5" points="8,-32.8 8,-157.8 766,-157.8 766,-32.8 8,-32.8"/>
</g>
<g id="clust2" class="cluster">
<title>cluster_ActivityModule_declarations</title>
<polygon fill="none" stroke="black" points="614,-40.8 614,-92.8 758,-92.8 758,-40.8 614,-40.8"/>
</g>
<g id="clust4" class="cluster">
<title>cluster_ActivityModule_imports</title>
<polygon fill="none" stroke="black" points="16,-40.8 16,-92.8 606,-92.8 606,-40.8 16,-40.8"/>
</g>
<!-- ActivityComponent -->
<g id="node1" class="node">
<title>ActivityComponent</title>
<polygon fill="#ffffb3" stroke="black" points="749.72,-84.8 622.28,-84.8 622.28,-48.8 749.72,-48.8 749.72,-84.8"/>
<text text-anchor="middle" x="686" y="-62.6" font-family="Times,serif" font-size="14.00">ActivityComponent</text>
</g>
<!-- ActivityModule -->
<g id="node2" class="node">
<title>ActivityModule</title>
<polygon fill="#8dd3c7" stroke="black" points="425.93,-149.8 422.93,-153.8 401.93,-153.8 398.93,-149.8 320.07,-149.8 320.07,-113.8 425.93,-113.8 425.93,-149.8"/>
<text text-anchor="middle" x="373" y="-127.6" font-family="Times,serif" font-size="14.00">ActivityModule</text>
</g>
<!-- ActivityComponent&#45;&gt;ActivityModule -->
<g id="edge1" class="edge">
<title>ActivityComponent&#45;&gt;ActivityModule</title>
<path fill="none" stroke="black" d="M686,-85.08C686,-106.12 686,-137.8 686,-137.8 686,-137.8 435.74,-137.8 435.74,-137.8"/>
<polygon fill="black" stroke="black" points="435.74,-134.3 425.74,-137.8 435.74,-141.3 435.74,-134.3"/>
</g>
<!-- ActivityItemModule -->
<g id="node3" class="node">
<title>ActivityItemModule</title>
<polygon fill="#8dd3c7" stroke="black" points="597.59,-84.8 594.59,-88.8 573.59,-88.8 570.59,-84.8 466.41,-84.8 466.41,-48.8 597.59,-48.8 597.59,-84.8"/>
<text text-anchor="middle" x="532" y="-62.6" font-family="Times,serif" font-size="14.00">ActivityItemModule</text>
</g>
<!-- ActivityItemModule&#45;&gt;ActivityModule -->
<g id="edge2" class="edge">
<title>ActivityItemModule&#45;&gt;ActivityModule</title>
<path fill="none" stroke="black" d="M532,-84.82C532,-102.17 532,-125.8 532,-125.8 532,-125.8 435.94,-125.8 435.94,-125.8"/>
<polygon fill="black" stroke="black" points="435.94,-122.3 425.94,-125.8 435.94,-129.3 435.94,-122.3"/>
</g>
<!-- ActivityRoutingModule -->
<g id="node4" class="node">
<title>ActivityRoutingModule</title>
<polygon fill="#8dd3c7" stroke="black" points="448.05,-84.8 445.05,-88.8 424.05,-88.8 421.05,-84.8 297.95,-84.8 297.95,-48.8 448.05,-48.8 448.05,-84.8"/>
<text text-anchor="middle" x="373" y="-62.6" font-family="Times,serif" font-size="14.00">ActivityRoutingModule</text>
</g>
<!-- ActivityRoutingModule&#45;&gt;ActivityModule -->
<g id="edge3" class="edge">
<title>ActivityRoutingModule&#45;&gt;ActivityModule</title>
<path fill="none" stroke="black" d="M373,-84.91C373,-84.91 373,-103.79 373,-103.79"/>
<polygon fill="black" stroke="black" points="369.5,-103.79 373,-113.79 376.5,-103.79 369.5,-103.79"/>
</g>
<!-- DataChartModule -->
<g id="node5" class="node">
<title>DataChartModule</title>
<polygon fill="#8dd3c7" stroke="black" points="279.58,-84.8 276.58,-88.8 255.58,-88.8 252.58,-84.8 162.42,-84.8 162.42,-48.8 279.58,-48.8 279.58,-84.8"/>
<text text-anchor="middle" x="221" y="-62.6" font-family="Times,serif" font-size="14.00">DataChartModule</text>
</g>
<!-- DataChartModule&#45;&gt;ActivityModule -->
<g id="edge4" class="edge">
<title>DataChartModule&#45;&gt;ActivityModule</title>
<path fill="none" stroke="black" d="M221,-84.82C221,-102.17 221,-125.8 221,-125.8 221,-125.8 310.26,-125.8 310.26,-125.8"/>
<polygon fill="black" stroke="black" points="310.26,-129.3 320.26,-125.8 310.26,-122.3 310.26,-129.3"/>
</g>
<!-- ItemsFilterModule -->
<g id="node6" class="node">
<title>ItemsFilterModule</title>
<polygon fill="#8dd3c7" stroke="black" points="144.48,-84.8 141.48,-88.8 120.48,-88.8 117.48,-84.8 23.52,-84.8 23.52,-48.8 144.48,-48.8 144.48,-84.8"/>
<text text-anchor="middle" x="84" y="-62.6" font-family="Times,serif" font-size="14.00">ItemsFilterModule</text>
</g>
<!-- ItemsFilterModule&#45;&gt;ActivityModule -->
<g id="edge5" class="edge">
<title>ItemsFilterModule&#45;&gt;ActivityModule</title>
<path fill="none" stroke="black" d="M84,-85.08C84,-106.12 84,-137.8 84,-137.8 84,-137.8 309.99,-137.8 309.99,-137.8"/>
<polygon fill="black" stroke="black" points="309.99,-141.3 319.99,-137.8 309.99,-134.3 309.99,-141.3"/>
</g>
</g>
</svg>
