<?xml version="1.0" encoding="UTF-8" standalone="no"?>
<!DOCTYPE svg PUBLIC "-//W3C//DTD SVG 1.1//EN"
 "http://www.w3.org/Graphics/SVG/1.1/DTD/svg11.dtd">
<!-- Generated by graphviz version 2.47.3 (20210619.1520)
 -->
<!-- Title: dependencies Pages: 1 -->
<svg width="352pt" height="247pt"
 viewBox="0.00 0.00 352.00 246.80" xmlns="http://www.w3.org/2000/svg" xmlns:xlink="http://www.w3.org/1999/xlink">
<g id="graph0" class="graph" transform="scale(1 1) rotate(0) translate(4 242.8)">
<title>dependencies</title>
<polygon fill="white" stroke="transparent" points="-4,4 -4,-242.8 348,-242.8 348,4 -4,4"/>
<text text-anchor="middle" x="172" y="-8.2" font-family="sans-serif" font-size="14.00">dependencies</text>
<g id="clust1" class="cluster">
<title>cluster_DataChartModule</title>
<polygon fill="none" stroke="black" stroke-dasharray="1,5" points="8,-32.8 8,-230.8 336,-230.8 336,-32.8 8,-32.8"/>
</g>
<g id="clust2" class="cluster">
<title>cluster_DataChartModule_declarations</title>
<polygon fill="none" stroke="black" points="174,-40.8 174,-92.8 328,-92.8 328,-40.8 174,-40.8"/>
</g>
<g id="clust5" class="cluster">
<title>cluster_DataChartModule_exports</title>
<polygon fill="none" stroke="black" points="93,-170.8 93,-222.8 251,-222.8 251,-170.8 93,-170.8"/>
</g>
<g id="clust4" class="cluster">
<title>cluster_DataChartModule_imports</title>
<polygon fill="none" stroke="black" points="16,-40.8 16,-92.8 166,-92.8 166,-40.8 16,-40.8"/>
</g>
<!-- DataChartComponent -->
<g id="node1" class="node">
<title>DataChartComponent</title>
<polygon fill="#ffffb3" stroke="black" points="320.36,-84.8 181.64,-84.8 181.64,-48.8 320.36,-48.8 320.36,-84.8"/>
<text text-anchor="middle" x="251" y="-62.6" font-family="Times,serif" font-size="14.00">DataChartComponent</text>
</g>
<!-- DataChartModule -->
<g id="node2" class="node">
<title>DataChartModule</title>
<polygon fill="#8dd3c7" stroke="black" points="230.58,-149.8 227.58,-153.8 206.58,-153.8 203.58,-149.8 113.42,-149.8 113.42,-113.8 230.58,-113.8 230.58,-149.8"/>
<text text-anchor="middle" x="172" y="-127.6" font-family="Times,serif" font-size="14.00">DataChartModule</text>
</g>
<!-- DataChartComponent&#45;&gt;DataChartModule -->
<g id="edge1" class="edge">
<title>DataChartComponent&#45;&gt;DataChartModule</title>
<path fill="none" stroke="black" d="M206.05,-84.91C206.05,-84.91 206.05,-103.79 206.05,-103.79"/>
<polygon fill="black" stroke="black" points="202.55,-103.79 206.05,-113.79 209.55,-103.79 202.55,-103.79"/>
</g>
<!-- DataChartComponent  -->
<g id="node4" class="node">
<title>DataChartComponent </title>
<polygon fill="#fb8072" stroke="black" points="243.36,-214.8 100.64,-214.8 100.64,-178.8 243.36,-178.8 243.36,-214.8"/>
<text text-anchor="middle" x="172" y="-192.6" font-family="Times,serif" font-size="14.00">DataChartComponent </text>
</g>
<!-- DataChartModule&#45;&gt;DataChartComponent  -->
<g id="edge3" class="edge">
<title>DataChartModule&#45;&gt;DataChartComponent </title>
<path fill="none" stroke="black" stroke-dasharray="5,2" d="M172,-149.91C172,-149.91 172,-168.79 172,-168.79"/>
<polygon fill="black" stroke="black" points="168.5,-168.79 172,-178.79 175.5,-168.79 168.5,-168.79"/>
</g>
<!-- CustomChartModule -->
<g id="node3" class="node">
<title>CustomChartModule</title>
<polygon fill="#8dd3c7" stroke="black" points="158.21,-84.8 155.21,-88.8 134.21,-88.8 131.21,-84.8 23.79,-84.8 23.79,-48.8 158.21,-48.8 158.21,-84.8"/>
<text text-anchor="middle" x="91" y="-62.6" font-family="Times,serif" font-size="14.00">CustomChartModule</text>
</g>
<!-- CustomChartModule&#45;&gt;DataChartModule -->
<g id="edge2" class="edge">
<title>CustomChartModule&#45;&gt;DataChartModule</title>
<path fill="none" stroke="black" d="M135.78,-84.91C135.78,-84.91 135.78,-103.79 135.78,-103.79"/>
<polygon fill="black" stroke="black" points="132.28,-103.79 135.78,-113.79 139.28,-103.79 132.28,-103.79"/>
</g>
</g>
</svg>
