<?xml version="1.0" encoding="UTF-8" standalone="no"?>
<!DOCTYPE svg PUBLIC "-//W3C//DTD SVG 1.1//EN"
 "http://www.w3.org/Graphics/SVG/1.1/DTD/svg11.dtd">
<!-- Generated by graphviz version 2.47.3 (20210619.1520)
 -->
<!-- Title: dependencies Pages: 1 -->
<svg width="400pt" height="247pt"
 viewBox="0.00 0.00 400.00 246.80" xmlns="http://www.w3.org/2000/svg" xmlns:xlink="http://www.w3.org/1999/xlink">
<g id="graph0" class="graph" transform="scale(1 1) rotate(0) translate(4 242.8)">
<title>dependencies</title>
<polygon fill="white" stroke="transparent" points="-4,4 -4,-242.8 396,-242.8 396,4 -4,4"/>
<text text-anchor="middle" x="196" y="-8.2" font-family="sans-serif" font-size="14.00">dependencies</text>
<g id="clust1" class="cluster">
<title>cluster_ToolbarModule</title>
<polygon fill="none" stroke="black" stroke-dasharray="1,5" points="8,-32.8 8,-230.8 384,-230.8 384,-32.8 8,-32.8"/>
</g>
<g id="clust4" class="cluster">
<title>cluster_ToolbarModule_imports</title>
<polygon fill="none" stroke="black" points="166,-40.8 166,-92.8 376,-92.8 376,-40.8 166,-40.8"/>
</g>
<g id="clust5" class="cluster">
<title>cluster_ToolbarModule_exports</title>
<polygon fill="none" stroke="black" points="107,-170.8 107,-222.8 253,-222.8 253,-170.8 107,-170.8"/>
</g>
<g id="clust2" class="cluster">
<title>cluster_ToolbarModule_declarations</title>
<polygon fill="none" stroke="black" points="16,-40.8 16,-92.8 158,-92.8 158,-40.8 16,-40.8"/>
</g>
<!-- ToolbarComponent -->
<g id="node1" class="node">
<title>ToolbarComponent</title>
<polygon fill="#ffffb3" stroke="black" points="149.65,-84.8 24.35,-84.8 24.35,-48.8 149.65,-48.8 149.65,-84.8"/>
<text text-anchor="middle" x="87" y="-62.6" font-family="Times,serif" font-size="14.00">ToolbarComponent</text>
</g>
<!-- ToolbarModule -->
<g id="node2" class="node">
<title>ToolbarModule</title>
<polygon fill="#8dd3c7" stroke="black" points="231.87,-149.8 228.87,-153.8 207.87,-153.8 204.87,-149.8 128.13,-149.8 128.13,-113.8 231.87,-113.8 231.87,-149.8"/>
<text text-anchor="middle" x="180" y="-127.6" font-family="Times,serif" font-size="14.00">ToolbarModule</text>
</g>
<!-- ToolbarComponent&#45;&gt;ToolbarModule -->
<g id="edge1" class="edge">
<title>ToolbarComponent&#45;&gt;ToolbarModule</title>
<path fill="none" stroke="black" d="M138.95,-84.91C138.95,-84.91 138.95,-103.79 138.95,-103.79"/>
<polygon fill="black" stroke="black" points="135.45,-103.79 138.95,-113.79 142.45,-103.79 135.45,-103.79"/>
</g>
<!-- ToolbarComponent  -->
<g id="node4" class="node">
<title>ToolbarComponent </title>
<polygon fill="#fb8072" stroke="black" points="244.65,-214.8 115.35,-214.8 115.35,-178.8 244.65,-178.8 244.65,-214.8"/>
<text text-anchor="middle" x="180" y="-192.6" font-family="Times,serif" font-size="14.00">ToolbarComponent </text>
</g>
<!-- ToolbarModule&#45;&gt;ToolbarComponent  -->
<g id="edge3" class="edge">
<title>ToolbarModule&#45;&gt;ToolbarComponent </title>
<path fill="none" stroke="black" stroke-dasharray="5,2" d="M180,-149.91C180,-149.91 180,-168.79 180,-168.79"/>
<polygon fill="black" stroke="black" points="176.5,-168.79 180,-178.79 183.5,-168.79 176.5,-168.79"/>
</g>
<!-- ToolbarLanguageSelectModule -->
<g id="node3" class="node">
<title>ToolbarLanguageSelectModule</title>
<polygon fill="#8dd3c7" stroke="black" points="367.77,-84.8 364.77,-88.8 343.77,-88.8 340.77,-84.8 174.23,-84.8 174.23,-48.8 367.77,-48.8 367.77,-84.8"/>
<text text-anchor="middle" x="271" y="-62.6" font-family="Times,serif" font-size="14.00">ToolbarLanguageSelectModule</text>
</g>
<!-- ToolbarLanguageSelectModule&#45;&gt;ToolbarModule -->
<g id="edge2" class="edge">
<title>ToolbarLanguageSelectModule&#45;&gt;ToolbarModule</title>
<path fill="none" stroke="black" d="M203.15,-84.91C203.15,-84.91 203.15,-103.79 203.15,-103.79"/>
<polygon fill="black" stroke="black" points="199.65,-103.79 203.15,-113.79 206.65,-103.79 199.65,-103.79"/>
</g>
</g>
</svg>
