<?xml version="1.0" encoding="UTF-8" standalone="no"?>
<!DOCTYPE svg PUBLIC "-//W3C//DTD SVG 1.1//EN"
 "http://www.w3.org/Graphics/SVG/1.1/DTD/svg11.dtd">
<!-- Generated by graphviz version 2.47.3 (20210619.1520)
 -->
<!-- Title: dependencies Pages: 1 -->
<svg width="614pt" height="174pt"
 viewBox="0.00 0.00 614.00 173.80" xmlns="http://www.w3.org/2000/svg" xmlns:xlink="http://www.w3.org/1999/xlink">
<g id="graph0" class="graph" transform="scale(1 1) rotate(0) translate(4 169.8)">
<title>dependencies</title>
<polygon fill="white" stroke="transparent" points="-4,4 -4,-169.8 610,-169.8 610,4 -4,4"/>
<text text-anchor="middle" x="303" y="-8.2" font-family="sans-serif" font-size="14.00">dependencies</text>
<g id="clust1" class="cluster">
<title>cluster_LoginModule</title>
<polygon fill="none" stroke="black" stroke-dasharray="1,5" points="8,-32.8 8,-157.8 598,-157.8 598,-32.8 8,-32.8"/>
</g>
<g id="clust4" class="cluster">
<title>cluster_LoginModule_imports</title>
<polygon fill="none" stroke="black" points="154,-40.8 154,-92.8 590,-92.8 590,-40.8 154,-40.8"/>
</g>
<g id="clust2" class="cluster">
<title>cluster_LoginModule_declarations</title>
<polygon fill="none" stroke="black" points="16,-40.8 16,-92.8 146,-92.8 146,-40.8 16,-40.8"/>
</g>
<!-- LoginComponent -->
<g id="node1" class="node">
<title>LoginComponent</title>
<polygon fill="#ffffb3" stroke="black" points="138.28,-84.8 23.72,-84.8 23.72,-48.8 138.28,-48.8 138.28,-84.8"/>
<text text-anchor="middle" x="81" y="-62.6" font-family="Times,serif" font-size="14.00">LoginComponent</text>
</g>
<!-- LoginModule -->
<g id="node2" class="node">
<title>LoginModule</title>
<polygon fill="#8dd3c7" stroke="black" points="330.49,-149.8 327.49,-153.8 306.49,-153.8 303.49,-149.8 237.51,-149.8 237.51,-113.8 330.49,-113.8 330.49,-149.8"/>
<text text-anchor="middle" x="284" y="-127.6" font-family="Times,serif" font-size="14.00">LoginModule</text>
</g>
<!-- LoginComponent&#45;&gt;LoginModule -->
<g id="edge1" class="edge">
<title>LoginComponent&#45;&gt;LoginModule</title>
<path fill="none" stroke="black" d="M81,-84.91C81,-104.14 81,-131.8 81,-131.8 81,-131.8 227.43,-131.8 227.43,-131.8"/>
<polygon fill="black" stroke="black" points="227.43,-135.3 237.43,-131.8 227.43,-128.3 227.43,-135.3"/>
</g>
<!-- LoginRoutingModule -->
<g id="node3" class="node">
<title>LoginRoutingModule</title>
<polygon fill="#8dd3c7" stroke="black" points="582.11,-84.8 579.11,-88.8 558.11,-88.8 555.11,-84.8 443.89,-84.8 443.89,-48.8 582.11,-48.8 582.11,-84.8"/>
<text text-anchor="middle" x="513" y="-62.6" font-family="Times,serif" font-size="14.00">LoginRoutingModule</text>
</g>
<!-- LoginRoutingModule&#45;&gt;LoginModule -->
<g id="edge2" class="edge">
<title>LoginRoutingModule&#45;&gt;LoginModule</title>
<path fill="none" stroke="black" d="M513,-84.91C513,-104.14 513,-131.8 513,-131.8 513,-131.8 340.62,-131.8 340.62,-131.8"/>
<polygon fill="black" stroke="black" points="340.62,-128.3 330.62,-131.8 340.62,-135.3 340.62,-128.3"/>
</g>
<!-- PasswordInputModule -->
<g id="node4" class="node">
<title>PasswordInputModule</title>
<polygon fill="#8dd3c7" stroke="black" points="426.25,-84.8 423.25,-88.8 402.25,-88.8 399.25,-84.8 283.75,-84.8 283.75,-48.8 426.25,-48.8 426.25,-84.8"/>
<text text-anchor="middle" x="355" y="-62.6" font-family="Times,serif" font-size="14.00">PasswordInputModule</text>
</g>
<!-- PasswordInputModule&#45;&gt;LoginModule -->
<g id="edge3" class="edge">
<title>PasswordInputModule&#45;&gt;LoginModule</title>
<path fill="none" stroke="black" d="M307.06,-84.91C307.06,-84.91 307.06,-103.79 307.06,-103.79"/>
<polygon fill="black" stroke="black" points="303.56,-103.79 307.06,-113.79 310.56,-103.79 303.56,-103.79"/>
</g>
<!-- ToolbarModule -->
<g id="node5" class="node">
<title>ToolbarModule</title>
<polygon fill="#8dd3c7" stroke="black" points="265.87,-84.8 262.87,-88.8 241.87,-88.8 238.87,-84.8 162.13,-84.8 162.13,-48.8 265.87,-48.8 265.87,-84.8"/>
<text text-anchor="middle" x="214" y="-62.6" font-family="Times,serif" font-size="14.00">ToolbarModule</text>
</g>
<!-- ToolbarModule&#45;&gt;LoginModule -->
<g id="edge4" class="edge">
<title>ToolbarModule&#45;&gt;LoginModule</title>
<path fill="none" stroke="black" d="M251.72,-84.91C251.72,-84.91 251.72,-103.79 251.72,-103.79"/>
<polygon fill="black" stroke="black" points="248.22,-103.79 251.72,-113.79 255.22,-103.79 248.22,-103.79"/>
</g>
</g>
</svg>
