<?xml version="1.0" encoding="UTF-8" standalone="no"?>
<!DOCTYPE svg PUBLIC "-//W3C//DTD SVG 1.1//EN"
 "http://www.w3.org/Graphics/SVG/1.1/DTD/svg11.dtd">
<!-- Generated by graphviz version 2.47.3 (20210619.1520)
 -->
<!-- Title: dependencies Pages: 1 -->
<svg width="216pt" height="247pt"
 viewBox="0.00 0.00 216.00 246.80" xmlns="http://www.w3.org/2000/svg" xmlns:xlink="http://www.w3.org/1999/xlink">
<g id="graph0" class="graph" transform="scale(1 1) rotate(0) translate(4 242.8)">
<title>dependencies</title>
<polygon fill="white" stroke="transparent" points="-4,4 -4,-242.8 212,-242.8 212,4 -4,4"/>
<text text-anchor="middle" x="104" y="-8.2" font-family="sans-serif" font-size="14.00">dependencies</text>
<g id="clust1" class="cluster">
<title>cluster_CustomChartModule</title>
<polygon fill="none" stroke="black" stroke-dasharray="1,5" points="8,-32.8 8,-230.8 200,-230.8 200,-32.8 8,-32.8"/>
</g>
<g id="clust2" class="cluster">
<title>cluster_CustomChartModule_declarations</title>
<polygon fill="none" stroke="black" points="18,-40.8 18,-92.8 190,-92.8 190,-40.8 18,-40.8"/>
</g>
<g id="clust5" class="cluster">
<title>cluster_CustomChartModule_exports</title>
<polygon fill="none" stroke="black" points="16,-170.8 16,-222.8 192,-222.8 192,-170.8 16,-170.8"/>
</g>
<!-- CustomChartComponent -->
<g id="node1" class="node">
<title>CustomChartComponent</title>
<polygon fill="#ffffb3" stroke="black" points="182,-84.8 26,-84.8 26,-48.8 182,-48.8 182,-84.8"/>
<text text-anchor="middle" x="104" y="-62.6" font-family="Times,serif" font-size="14.00">CustomChartComponent</text>
</g>
<!-- CustomChartModule -->
<g id="node2" class="node">
<title>CustomChartModule</title>
<polygon fill="#8dd3c7" stroke="black" points="171.21,-149.8 168.21,-153.8 147.21,-153.8 144.21,-149.8 36.79,-149.8 36.79,-113.8 171.21,-113.8 171.21,-149.8"/>
<text text-anchor="middle" x="104" y="-127.6" font-family="Times,serif" font-size="14.00">CustomChartModule</text>
</g>
<!-- CustomChartComponent&#45;&gt;CustomChartModule -->
<g id="edge1" class="edge">
<title>CustomChartComponent&#45;&gt;CustomChartModule</title>
<path fill="none" stroke="black" d="M104,-84.91C104,-84.91 104,-103.79 104,-103.79"/>
<polygon fill="black" stroke="black" points="100.5,-103.79 104,-113.79 107.5,-103.79 100.5,-103.79"/>
</g>
<!-- CustomChartComponent  -->
<g id="node3" class="node">
<title>CustomChartComponent </title>
<polygon fill="#fb8072" stroke="black" points="184,-214.8 24,-214.8 24,-178.8 184,-178.8 184,-214.8"/>
<text text-anchor="middle" x="104" y="-192.6" font-family="Times,serif" font-size="14.00">CustomChartComponent </text>
</g>
<!-- CustomChartModule&#45;&gt;CustomChartComponent  -->
<g id="edge2" class="edge">
<title>CustomChartModule&#45;&gt;CustomChartComponent </title>
<path fill="none" stroke="black" stroke-dasharray="5,2" d="M104,-149.91C104,-149.91 104,-168.79 104,-168.79"/>
<polygon fill="black" stroke="black" points="100.5,-168.79 104,-178.79 107.5,-168.79 100.5,-168.79"/>
</g>
</g>
</svg>
