<?xml version="1.0" encoding="UTF-8" standalone="no"?>
<!DOCTYPE svg PUBLIC "-//W3C//DTD SVG 1.1//EN"
 "http://www.w3.org/Graphics/SVG/1.1/DTD/svg11.dtd">
<!-- Generated by graphviz version 2.47.3 (20210619.1520)
 -->
<!-- Title: dependencies Pages: 1 -->
<svg width="814pt" height="174pt"
 viewBox="0.00 0.00 814.00 173.80" xmlns="http://www.w3.org/2000/svg" xmlns:xlink="http://www.w3.org/1999/xlink">
<g id="graph0" class="graph" transform="scale(1 1) rotate(0) translate(4 169.8)">
<title>dependencies</title>
<polygon fill="white" stroke="transparent" points="-4,4 -4,-169.8 810,-169.8 810,4 -4,4"/>
<text text-anchor="middle" x="403" y="-8.2" font-family="sans-serif" font-size="14.00">dependencies</text>
<g id="clust1" class="cluster">
<title>cluster_HeartRateModule</title>
<polygon fill="none" stroke="black" stroke-dasharray="1,5" points="8,-32.8 8,-157.8 798,-157.8 798,-32.8 8,-32.8"/>
</g>
<g id="clust2" class="cluster">
<title>cluster_HeartRateModule_declarations</title>
<polygon fill="none" stroke="black" points="636,-40.8 636,-92.8 790,-92.8 790,-40.8 636,-40.8"/>
</g>
<g id="clust4" class="cluster">
<title>cluster_HeartRateModule_imports</title>
<polygon fill="none" stroke="black" points="16,-40.8 16,-92.8 628,-92.8 628,-40.8 16,-40.8"/>
</g>
<!-- HeartRateComponent -->
<g id="node1" class="node">
<title>HeartRateComponent</title>
<polygon fill="#ffffb3" stroke="black" points="782.08,-84.8 643.92,-84.8 643.92,-48.8 782.08,-48.8 782.08,-84.8"/>
<text text-anchor="middle" x="713" y="-62.6" font-family="Times,serif" font-size="14.00">HeartRateComponent</text>
</g>
<!-- HeartRateModule -->
<g id="node2" class="node">
<title>HeartRateModule</title>
<polygon fill="#8dd3c7" stroke="black" points="471.29,-149.8 468.29,-153.8 447.29,-153.8 444.29,-149.8 354.71,-149.8 354.71,-113.8 471.29,-113.8 471.29,-149.8"/>
<text text-anchor="middle" x="413" y="-127.6" font-family="Times,serif" font-size="14.00">HeartRateModule</text>
</g>
<!-- HeartRateComponent&#45;&gt;HeartRateModule -->
<g id="edge1" class="edge">
<title>HeartRateComponent&#45;&gt;HeartRateModule</title>
<path fill="none" stroke="black" d="M713,-85.08C713,-106.12 713,-137.8 713,-137.8 713,-137.8 481.2,-137.8 481.2,-137.8"/>
<polygon fill="black" stroke="black" points="481.2,-134.3 471.2,-137.8 481.2,-141.3 481.2,-134.3"/>
</g>
<!-- DataChartModule -->
<g id="node3" class="node">
<title>DataChartModule</title>
<polygon fill="#8dd3c7" stroke="black" points="619.58,-84.8 616.58,-88.8 595.58,-88.8 592.58,-84.8 502.42,-84.8 502.42,-48.8 619.58,-48.8 619.58,-84.8"/>
<text text-anchor="middle" x="561" y="-62.6" font-family="Times,serif" font-size="14.00">DataChartModule</text>
</g>
<!-- DataChartModule&#45;&gt;HeartRateModule -->
<g id="edge2" class="edge">
<title>DataChartModule&#45;&gt;HeartRateModule</title>
<path fill="none" stroke="black" d="M561,-84.82C561,-102.17 561,-125.8 561,-125.8 561,-125.8 481.49,-125.8 481.49,-125.8"/>
<polygon fill="black" stroke="black" points="481.49,-122.3 471.49,-125.8 481.49,-129.3 481.49,-122.3"/>
</g>
<!-- HeartRateItemModule -->
<g id="node4" class="node">
<title>HeartRateItemModule</title>
<polygon fill="#8dd3c7" stroke="black" points="483.95,-84.8 480.95,-88.8 459.95,-88.8 456.95,-84.8 342.05,-84.8 342.05,-48.8 483.95,-48.8 483.95,-84.8"/>
<text text-anchor="middle" x="413" y="-62.6" font-family="Times,serif" font-size="14.00">HeartRateItemModule</text>
</g>
<!-- HeartRateItemModule&#45;&gt;HeartRateModule -->
<g id="edge3" class="edge">
<title>HeartRateItemModule&#45;&gt;HeartRateModule</title>
<path fill="none" stroke="black" d="M413,-84.91C413,-84.91 413,-103.79 413,-103.79"/>
<polygon fill="black" stroke="black" points="409.5,-103.79 413,-113.79 416.5,-103.79 409.5,-103.79"/>
</g>
<!-- HeartRateRoutingModule -->
<g id="node5" class="node">
<title>HeartRateRoutingModule</title>
<polygon fill="#8dd3c7" stroke="black" points="323.91,-84.8 320.91,-88.8 299.91,-88.8 296.91,-84.8 162.09,-84.8 162.09,-48.8 323.91,-48.8 323.91,-84.8"/>
<text text-anchor="middle" x="243" y="-62.6" font-family="Times,serif" font-size="14.00">HeartRateRoutingModule</text>
</g>
<!-- HeartRateRoutingModule&#45;&gt;HeartRateModule -->
<g id="edge4" class="edge">
<title>HeartRateRoutingModule&#45;&gt;HeartRateModule</title>
<path fill="none" stroke="black" d="M243,-84.82C243,-102.17 243,-125.8 243,-125.8 243,-125.8 344.5,-125.8 344.5,-125.8"/>
<polygon fill="black" stroke="black" points="344.5,-129.3 354.5,-125.8 344.5,-122.3 344.5,-129.3"/>
</g>
<!-- ItemsFilterModule -->
<g id="node6" class="node">
<title>ItemsFilterModule</title>
<polygon fill="#8dd3c7" stroke="black" points="144.48,-84.8 141.48,-88.8 120.48,-88.8 117.48,-84.8 23.52,-84.8 23.52,-48.8 144.48,-48.8 144.48,-84.8"/>
<text text-anchor="middle" x="84" y="-62.6" font-family="Times,serif" font-size="14.00">ItemsFilterModule</text>
</g>
<!-- ItemsFilterModule&#45;&gt;HeartRateModule -->
<g id="edge5" class="edge">
<title>ItemsFilterModule&#45;&gt;HeartRateModule</title>
<path fill="none" stroke="black" d="M84,-85.08C84,-106.12 84,-137.8 84,-137.8 84,-137.8 344.56,-137.8 344.56,-137.8"/>
<polygon fill="black" stroke="black" points="344.56,-141.3 354.56,-137.8 344.56,-134.3 344.56,-141.3"/>
</g>
</g>
</svg>
