<?xml version="1.0" encoding="UTF-8" standalone="no"?>
<!DOCTYPE svg PUBLIC "-//W3C//DTD SVG 1.1//EN"
 "http://www.w3.org/Graphics/SVG/1.1/DTD/svg11.dtd">
<!-- Generated by graphviz version 2.47.3 (20210619.1520)
 -->
<!-- Title: dependencies Pages: 1 -->
<svg width="558pt" height="247pt"
 viewBox="0.00 0.00 558.00 246.80" xmlns="http://www.w3.org/2000/svg" xmlns:xlink="http://www.w3.org/1999/xlink">
<g id="graph0" class="graph" transform="scale(1 1) rotate(0) translate(4 242.8)">
<title>dependencies</title>
<polygon fill="white" stroke="transparent" points="-4,4 -4,-242.8 554,-242.8 554,4 -4,4"/>
<text text-anchor="middle" x="275" y="-8.2" font-family="sans-serif" font-size="14.00">dependencies</text>
<g id="clust1" class="cluster">
<title>cluster_ResetPasswordModule</title>
<polygon fill="none" stroke="black" stroke-dasharray="1,5" points="8,-32.8 8,-230.8 542,-230.8 542,-32.8 8,-32.8"/>
</g>
<g id="clust2" class="cluster">
<title>cluster_ResetPasswordModule_declarations</title>
<polygon fill="none" stroke="black" points="352,-40.8 352,-92.8 534,-92.8 534,-40.8 352,-40.8"/>
</g>
<g id="clust4" class="cluster">
<title>cluster_ResetPasswordModule_imports</title>
<polygon fill="none" stroke="black" points="16,-40.8 16,-92.8 344,-92.8 344,-40.8 16,-40.8"/>
</g>
<g id="clust5" class="cluster">
<title>cluster_ResetPasswordModule_exports</title>
<polygon fill="none" stroke="black" points="148,-170.8 148,-222.8 334,-222.8 334,-170.8 148,-170.8"/>
</g>
<!-- ResetPasswordComponent -->
<g id="node1" class="node">
<title>ResetPasswordComponent</title>
<polygon fill="#ffffb3" stroke="black" points="526.09,-84.8 359.91,-84.8 359.91,-48.8 526.09,-48.8 526.09,-84.8"/>
<text text-anchor="middle" x="443" y="-62.6" font-family="Times,serif" font-size="14.00">ResetPasswordComponent</text>
</g>
<!-- ResetPasswordModule -->
<g id="node2" class="node">
<title>ResetPasswordModule</title>
<polygon fill="#8dd3c7" stroke="black" points="313.3,-149.8 310.3,-153.8 289.3,-153.8 286.3,-149.8 168.7,-149.8 168.7,-113.8 313.3,-113.8 313.3,-149.8"/>
<text text-anchor="middle" x="241" y="-127.6" font-family="Times,serif" font-size="14.00">ResetPasswordModule</text>
</g>
<!-- ResetPasswordComponent&#45;&gt;ResetPasswordModule -->
<g id="edge1" class="edge">
<title>ResetPasswordComponent&#45;&gt;ResetPasswordModule</title>
<path fill="none" stroke="black" d="M443,-84.91C443,-104.14 443,-131.8 443,-131.8 443,-131.8 323.36,-131.8 323.36,-131.8"/>
<polygon fill="black" stroke="black" points="323.36,-128.3 313.36,-131.8 323.36,-135.3 323.36,-128.3"/>
</g>
<!-- ResetPasswordComponent  -->
<g id="node5" class="node">
<title>ResetPasswordComponent </title>
<polygon fill="#fb8072" stroke="black" points="325.59,-214.8 156.41,-214.8 156.41,-178.8 325.59,-178.8 325.59,-214.8"/>
<text text-anchor="middle" x="241" y="-192.6" font-family="Times,serif" font-size="14.00">ResetPasswordComponent </text>
</g>
<!-- ResetPasswordModule&#45;&gt;ResetPasswordComponent  -->
<g id="edge4" class="edge">
<title>ResetPasswordModule&#45;&gt;ResetPasswordComponent </title>
<path fill="none" stroke="black" stroke-dasharray="5,2" d="M241,-149.91C241,-149.91 241,-168.79 241,-168.79"/>
<polygon fill="black" stroke="black" points="237.5,-168.79 241,-178.79 244.5,-168.79 237.5,-168.79"/>
</g>
<!-- ResetPasswordRoutingModule -->
<g id="node3" class="node">
<title>ResetPasswordRoutingModule</title>
<polygon fill="#8dd3c7" stroke="black" points="335.92,-84.8 332.92,-88.8 311.92,-88.8 308.92,-84.8 146.08,-84.8 146.08,-48.8 335.92,-48.8 335.92,-84.8"/>
<text text-anchor="middle" x="241" y="-62.6" font-family="Times,serif" font-size="14.00">ResetPasswordRoutingModule</text>
</g>
<!-- ResetPasswordRoutingModule&#45;&gt;ResetPasswordModule -->
<g id="edge2" class="edge">
<title>ResetPasswordRoutingModule&#45;&gt;ResetPasswordModule</title>
<path fill="none" stroke="black" d="M241,-84.91C241,-84.91 241,-103.79 241,-103.79"/>
<polygon fill="black" stroke="black" points="237.5,-103.79 241,-113.79 244.5,-103.79 237.5,-103.79"/>
</g>
<!-- ToolbarModule -->
<g id="node4" class="node">
<title>ToolbarModule</title>
<polygon fill="#8dd3c7" stroke="black" points="127.87,-84.8 124.87,-88.8 103.87,-88.8 100.87,-84.8 24.13,-84.8 24.13,-48.8 127.87,-48.8 127.87,-84.8"/>
<text text-anchor="middle" x="76" y="-62.6" font-family="Times,serif" font-size="14.00">ToolbarModule</text>
</g>
<!-- ToolbarModule&#45;&gt;ResetPasswordModule -->
<g id="edge3" class="edge">
<title>ToolbarModule&#45;&gt;ResetPasswordModule</title>
<path fill="none" stroke="black" d="M76,-84.91C76,-104.14 76,-131.8 76,-131.8 76,-131.8 158.63,-131.8 158.63,-131.8"/>
<polygon fill="black" stroke="black" points="158.63,-135.3 168.63,-131.8 158.63,-128.3 158.63,-135.3"/>
</g>
</g>
</svg>
