<?xml version="1.0" encoding="UTF-8" standalone="no"?>
<!DOCTYPE svg PUBLIC "-//W3C//DTD SVG 1.1//EN"
 "http://www.w3.org/Graphics/SVG/1.1/DTD/svg11.dtd">
<!-- Generated by graphviz version 2.47.3 (20210619.1520)
 -->
<!-- Title: dependencies Pages: 1 -->
<svg width="344pt" height="247pt"
 viewBox="0.00 0.00 344.00 246.80" xmlns="http://www.w3.org/2000/svg" xmlns:xlink="http://www.w3.org/1999/xlink">
<g id="graph0" class="graph" transform="scale(1 1) rotate(0) translate(4 242.8)">
<title>dependencies</title>
<polygon fill="white" stroke="transparent" points="-4,4 -4,-242.8 340,-242.8 340,4 -4,4"/>
<text text-anchor="middle" x="168" y="-8.2" font-family="sans-serif" font-size="14.00">dependencies</text>
<g id="clust1" class="cluster">
<title>cluster_ItemsFilterModule</title>
<polygon fill="none" stroke="black" stroke-dasharray="1,5" points="8,-32.8 8,-230.8 328,-230.8 328,-32.8 8,-32.8"/>
</g>
<g id="clust2" class="cluster">
<title>cluster_ItemsFilterModule_declarations</title>
<polygon fill="none" stroke="black" points="162,-40.8 162,-92.8 320,-92.8 320,-40.8 162,-40.8"/>
</g>
<g id="clust4" class="cluster">
<title>cluster_ItemsFilterModule_imports</title>
<polygon fill="none" stroke="black" points="16,-40.8 16,-92.8 154,-92.8 154,-40.8 16,-40.8"/>
</g>
<g id="clust5" class="cluster">
<title>cluster_ItemsFilterModule_exports</title>
<polygon fill="none" stroke="black" points="87,-170.8 87,-222.8 249,-222.8 249,-170.8 87,-170.8"/>
</g>
<!-- ItemsFilterComponent -->
<g id="node1" class="node">
<title>ItemsFilterComponent</title>
<polygon fill="#ffffb3" stroke="black" points="312.26,-84.8 169.74,-84.8 169.74,-48.8 312.26,-48.8 312.26,-84.8"/>
<text text-anchor="middle" x="241" y="-62.6" font-family="Times,serif" font-size="14.00">ItemsFilterComponent</text>
</g>
<!-- ItemsFilterModule -->
<g id="node2" class="node">
<title>ItemsFilterModule</title>
<polygon fill="#8dd3c7" stroke="black" points="228.48,-149.8 225.48,-153.8 204.48,-153.8 201.48,-149.8 107.52,-149.8 107.52,-113.8 228.48,-113.8 228.48,-149.8"/>
<text text-anchor="middle" x="168" y="-127.6" font-family="Times,serif" font-size="14.00">ItemsFilterModule</text>
</g>
<!-- ItemsFilterComponent&#45;&gt;ItemsFilterModule -->
<g id="edge1" class="edge">
<title>ItemsFilterComponent&#45;&gt;ItemsFilterModule</title>
<path fill="none" stroke="black" d="M199.05,-84.91C199.05,-84.91 199.05,-103.79 199.05,-103.79"/>
<polygon fill="black" stroke="black" points="195.55,-103.79 199.05,-113.79 202.55,-103.79 195.55,-103.79"/>
</g>
<!-- ItemsFilterComponent  -->
<g id="node4" class="node">
<title>ItemsFilterComponent </title>
<polygon fill="#fb8072" stroke="black" points="241.26,-214.8 94.74,-214.8 94.74,-178.8 241.26,-178.8 241.26,-214.8"/>
<text text-anchor="middle" x="168" y="-192.6" font-family="Times,serif" font-size="14.00">ItemsFilterComponent </text>
</g>
<!-- ItemsFilterModule&#45;&gt;ItemsFilterComponent  -->
<g id="edge3" class="edge">
<title>ItemsFilterModule&#45;&gt;ItemsFilterComponent </title>
<path fill="none" stroke="black" stroke-dasharray="5,2" d="M168,-149.91C168,-149.91 168,-168.79 168,-168.79"/>
<polygon fill="black" stroke="black" points="164.5,-168.79 168,-178.79 171.5,-168.79 164.5,-168.79"/>
</g>
<!-- DatePickerModule -->
<g id="node3" class="node">
<title>DatePickerModule</title>
<polygon fill="#8dd3c7" stroke="black" points="145.74,-84.8 142.74,-88.8 121.74,-88.8 118.74,-84.8 24.26,-84.8 24.26,-48.8 145.74,-48.8 145.74,-84.8"/>
<text text-anchor="middle" x="85" y="-62.6" font-family="Times,serif" font-size="14.00">DatePickerModule</text>
</g>
<!-- DatePickerModule&#45;&gt;ItemsFilterModule -->
<g id="edge2" class="edge">
<title>DatePickerModule&#45;&gt;ItemsFilterModule</title>
<path fill="none" stroke="black" d="M126.69,-84.91C126.69,-84.91 126.69,-103.79 126.69,-103.79"/>
<polygon fill="black" stroke="black" points="123.19,-103.79 126.69,-113.79 130.19,-103.79 123.19,-103.79"/>
</g>
</g>
</svg>
