<?xml version="1.0" encoding="UTF-8" standalone="no"?>
<!DOCTYPE svg PUBLIC "-//W3C//DTD SVG 1.1//EN"
 "http://www.w3.org/Graphics/SVG/1.1/DTD/svg11.dtd">
<!-- Generated by graphviz version 2.47.3 (20210619.1520)
 -->
<!-- Title: dependencies Pages: 1 -->
<svg width="767pt" height="247pt"
 viewBox="0.00 0.00 767.00 246.80" xmlns="http://www.w3.org/2000/svg" xmlns:xlink="http://www.w3.org/1999/xlink">
<g id="graph0" class="graph" transform="scale(1 1) rotate(0) translate(4 242.8)">
<title>dependencies</title>
<polygon fill="white" stroke="transparent" points="-4,4 -4,-242.8 763,-242.8 763,4 -4,4"/>
<text text-anchor="middle" x="379.5" y="-8.2" font-family="sans-serif" font-size="14.00">dependencies</text>
<g id="clust1" class="cluster">
<title>cluster_ToolbarMenuUserSettingsModalModule</title>
<polygon fill="none" stroke="black" stroke-dasharray="1,5" points="8,-32.8 8,-230.8 751,-230.8 751,-32.8 8,-32.8"/>
</g>
<g id="clust4" class="cluster">
<title>cluster_ToolbarMenuUserSettingsModalModule_imports</title>
<polygon fill="none" stroke="black" points="306,-40.8 306,-92.8 743,-92.8 743,-40.8 306,-40.8"/>
</g>
<g id="clust5" class="cluster">
<title>cluster_ToolbarMenuUserSettingsModalModule_exports</title>
<polygon fill="none" stroke="black" points="306,-170.8 306,-222.8 592,-222.8 592,-170.8 306,-170.8"/>
</g>
<g id="clust2" class="cluster">
<title>cluster_ToolbarMenuUserSettingsModalModule_declarations</title>
<polygon fill="none" stroke="black" points="16,-40.8 16,-92.8 298,-92.8 298,-40.8 16,-40.8"/>
</g>
<!-- ToolbarMenuUserSettingsModalComponent -->
<g id="node1" class="node">
<title>ToolbarMenuUserSettingsModalComponent</title>
<polygon fill="#ffffb3" stroke="black" points="290.4,-84.8 23.6,-84.8 23.6,-48.8 290.4,-48.8 290.4,-84.8"/>
<text text-anchor="middle" x="157" y="-62.6" font-family="Times,serif" font-size="14.00">ToolbarMenuUserSettingsModalComponent</text>
</g>
<!-- ToolbarMenuUserSettingsModalModule -->
<g id="node2" class="node">
<title>ToolbarMenuUserSettingsModalModule</title>
<polygon fill="#8dd3c7" stroke="black" points="571.12,-149.8 568.12,-153.8 547.12,-153.8 544.12,-149.8 326.88,-149.8 326.88,-113.8 571.12,-113.8 571.12,-149.8"/>
<text text-anchor="middle" x="449" y="-127.6" font-family="Times,serif" font-size="14.00">ToolbarMenuUserSettingsModalModule</text>
</g>
<!-- ToolbarMenuUserSettingsModalComponent&#45;&gt;ToolbarMenuUserSettingsModalModule -->
<g id="edge1" class="edge">
<title>ToolbarMenuUserSettingsModalComponent&#45;&gt;ToolbarMenuUserSettingsModalModule</title>
<path fill="none" stroke="black" d="M157,-84.91C157,-104.14 157,-131.8 157,-131.8 157,-131.8 316.86,-131.8 316.86,-131.8"/>
<polygon fill="black" stroke="black" points="316.86,-135.3 326.86,-131.8 316.86,-128.3 316.86,-135.3"/>
</g>
<!-- ToolbarMenuUserSettingsModalComponent  -->
<g id="node6" class="node">
<title>ToolbarMenuUserSettingsModalComponent </title>
<polygon fill="#fb8072" stroke="black" points="583.9,-214.8 314.1,-214.8 314.1,-178.8 583.9,-178.8 583.9,-214.8"/>
<text text-anchor="middle" x="449" y="-192.6" font-family="Times,serif" font-size="14.00">ToolbarMenuUserSettingsModalComponent </text>
</g>
<!-- ToolbarMenuUserSettingsModalModule&#45;&gt;ToolbarMenuUserSettingsModalComponent  -->
<g id="edge5" class="edge">
<title>ToolbarMenuUserSettingsModalModule&#45;&gt;ToolbarMenuUserSettingsModalComponent </title>
<path fill="none" stroke="black" stroke-dasharray="5,2" d="M449,-149.91C449,-149.91 449,-168.79 449,-168.79"/>
<polygon fill="black" stroke="black" points="445.5,-168.79 449,-178.79 452.5,-168.79 445.5,-168.79"/>
</g>
<!-- DatePickerModule -->
<g id="node3" class="node">
<title>DatePickerModule</title>
<polygon fill="#8dd3c7" stroke="black" points="734.74,-84.8 731.74,-88.8 710.74,-88.8 707.74,-84.8 613.26,-84.8 613.26,-48.8 734.74,-48.8 734.74,-84.8"/>
<text text-anchor="middle" x="674" y="-62.6" font-family="Times,serif" font-size="14.00">DatePickerModule</text>
</g>
<!-- DatePickerModule&#45;&gt;ToolbarMenuUserSettingsModalModule -->
<g id="edge2" class="edge">
<title>DatePickerModule&#45;&gt;ToolbarMenuUserSettingsModalModule</title>
<path fill="none" stroke="black" d="M674,-84.91C674,-104.14 674,-131.8 674,-131.8 674,-131.8 581.38,-131.8 581.38,-131.8"/>
<polygon fill="black" stroke="black" points="581.38,-128.3 571.38,-131.8 581.38,-135.3 581.38,-128.3"/>
</g>
<!-- PasswordInputModule -->
<g id="node4" class="node">
<title>PasswordInputModule</title>
<polygon fill="#8dd3c7" stroke="black" points="595.25,-84.8 592.25,-88.8 571.25,-88.8 568.25,-84.8 452.75,-84.8 452.75,-48.8 595.25,-48.8 595.25,-84.8"/>
<text text-anchor="middle" x="524" y="-62.6" font-family="Times,serif" font-size="14.00">PasswordInputModule</text>
</g>
<!-- PasswordInputModule&#45;&gt;ToolbarMenuUserSettingsModalModule -->
<g id="edge3" class="edge">
<title>PasswordInputModule&#45;&gt;ToolbarMenuUserSettingsModalModule</title>
<path fill="none" stroke="black" d="M511.97,-84.91C511.97,-84.91 511.97,-103.79 511.97,-103.79"/>
<polygon fill="black" stroke="black" points="508.47,-103.79 511.97,-113.79 515.47,-103.79 508.47,-103.79"/>
</g>
<!-- RangeItemModule -->
<g id="node5" class="node">
<title>RangeItemModule</title>
<polygon fill="#8dd3c7" stroke="black" points="434.47,-84.8 431.47,-88.8 410.47,-88.8 407.47,-84.8 313.53,-84.8 313.53,-48.8 434.47,-48.8 434.47,-84.8"/>
<text text-anchor="middle" x="374" y="-62.6" font-family="Times,serif" font-size="14.00">RangeItemModule</text>
</g>
<!-- RangeItemModule&#45;&gt;ToolbarMenuUserSettingsModalModule -->
<g id="edge4" class="edge">
<title>RangeItemModule&#45;&gt;ToolbarMenuUserSettingsModalModule</title>
<path fill="none" stroke="black" d="M380.59,-84.91C380.59,-84.91 380.59,-103.79 380.59,-103.79"/>
<polygon fill="black" stroke="black" points="377.09,-103.79 380.59,-113.79 384.09,-103.79 377.09,-103.79"/>
</g>
</g>
</svg>
