<?xml version="1.0" encoding="UTF-8" standalone="no"?>
<!DOCTYPE svg PUBLIC "-//W3C//DTD SVG 1.1//EN"
 "http://www.w3.org/Graphics/SVG/1.1/DTD/svg11.dtd">
<!-- Generated by graphviz version 2.47.3 (20210619.1520)
 -->
<!-- Title: dependencies Pages: 1 -->
<svg width="764pt" height="174pt"
 viewBox="0.00 0.00 764.00 173.80" xmlns="http://www.w3.org/2000/svg" xmlns:xlink="http://www.w3.org/1999/xlink">
<g id="graph0" class="graph" transform="scale(1 1) rotate(0) translate(4 169.8)">
<title>dependencies</title>
<polygon fill="white" stroke="transparent" points="-4,4 -4,-169.8 760,-169.8 760,4 -4,4"/>
<text text-anchor="middle" x="378" y="-8.2" font-family="sans-serif" font-size="14.00">dependencies</text>
<g id="clust1" class="cluster">
<title>cluster_HomeModule</title>
<polygon fill="none" stroke="black" stroke-dasharray="1,5" points="8,-32.8 8,-157.8 748,-157.8 748,-32.8 8,-32.8"/>
</g>
<g id="clust2" class="cluster">
<title>cluster_HomeModule_declarations</title>
<polygon fill="none" stroke="black" points="608,-40.8 608,-92.8 740,-92.8 740,-40.8 608,-40.8"/>
</g>
<g id="clust4" class="cluster">
<title>cluster_HomeModule_imports</title>
<polygon fill="none" stroke="black" points="16,-40.8 16,-92.8 600,-92.8 600,-40.8 16,-40.8"/>
</g>
<!-- HomeComponent -->
<g id="node1" class="node">
<title>HomeComponent</title>
<polygon fill="#ffffb3" stroke="black" points="731.55,-84.8 616.45,-84.8 616.45,-48.8 731.55,-48.8 731.55,-84.8"/>
<text text-anchor="middle" x="674" y="-62.6" font-family="Times,serif" font-size="14.00">HomeComponent</text>
</g>
<!-- HomeModule -->
<g id="node2" class="node">
<title>HomeModule</title>
<polygon fill="#8dd3c7" stroke="black" points="414.76,-149.8 411.76,-153.8 390.76,-153.8 387.76,-149.8 321.24,-149.8 321.24,-113.8 414.76,-113.8 414.76,-149.8"/>
<text text-anchor="middle" x="368" y="-127.6" font-family="Times,serif" font-size="14.00">HomeModule</text>
</g>
<!-- HomeComponent&#45;&gt;HomeModule -->
<g id="edge1" class="edge">
<title>HomeComponent&#45;&gt;HomeModule</title>
<path fill="none" stroke="black" d="M674,-85.08C674,-106.12 674,-137.8 674,-137.8 674,-137.8 424.81,-137.8 424.81,-137.8"/>
<polygon fill="black" stroke="black" points="424.81,-134.3 414.81,-137.8 424.81,-141.3 424.81,-134.3"/>
</g>
<!-- HomeRoutingModule -->
<g id="node3" class="node">
<title>HomeRoutingModule</title>
<polygon fill="#8dd3c7" stroke="black" points="592.38,-84.8 589.38,-88.8 568.38,-88.8 565.38,-84.8 453.62,-84.8 453.62,-48.8 592.38,-48.8 592.38,-84.8"/>
<text text-anchor="middle" x="523" y="-62.6" font-family="Times,serif" font-size="14.00">HomeRoutingModule</text>
</g>
<!-- HomeRoutingModule&#45;&gt;HomeModule -->
<g id="edge2" class="edge">
<title>HomeRoutingModule&#45;&gt;HomeModule</title>
<path fill="none" stroke="black" d="M523,-84.82C523,-102.17 523,-125.8 523,-125.8 523,-125.8 424.93,-125.8 424.93,-125.8"/>
<polygon fill="black" stroke="black" points="424.93,-122.3 414.93,-125.8 424.93,-129.3 424.93,-122.3"/>
</g>
<!-- HomeTabBarModule -->
<g id="node4" class="node">
<title>HomeTabBarModule</title>
<polygon fill="#8dd3c7" stroke="black" points="435.74,-84.8 432.74,-88.8 411.74,-88.8 408.74,-84.8 300.26,-84.8 300.26,-48.8 435.74,-48.8 435.74,-84.8"/>
<text text-anchor="middle" x="368" y="-62.6" font-family="Times,serif" font-size="14.00">HomeTabBarModule</text>
</g>
<!-- HomeTabBarModule&#45;&gt;HomeModule -->
<g id="edge3" class="edge">
<title>HomeTabBarModule&#45;&gt;HomeModule</title>
<path fill="none" stroke="black" d="M368,-84.91C368,-84.91 368,-103.79 368,-103.79"/>
<polygon fill="black" stroke="black" points="364.5,-103.79 368,-113.79 371.5,-103.79 364.5,-103.79"/>
</g>
<!-- ToolbarMenuModule -->
<g id="node5" class="node">
<title>ToolbarMenuModule</title>
<polygon fill="#8dd3c7" stroke="black" points="282.03,-84.8 279.03,-88.8 258.03,-88.8 255.03,-84.8 145.97,-84.8 145.97,-48.8 282.03,-48.8 282.03,-84.8"/>
<text text-anchor="middle" x="214" y="-62.6" font-family="Times,serif" font-size="14.00">ToolbarMenuModule</text>
</g>
<!-- ToolbarMenuModule&#45;&gt;HomeModule -->
<g id="edge4" class="edge">
<title>ToolbarMenuModule&#45;&gt;HomeModule</title>
<path fill="none" stroke="black" d="M214,-84.82C214,-102.17 214,-125.8 214,-125.8 214,-125.8 310.96,-125.8 310.96,-125.8"/>
<polygon fill="black" stroke="black" points="310.96,-129.3 320.96,-125.8 310.96,-122.3 310.96,-129.3"/>
</g>
<!-- ToolbarModule -->
<g id="node6" class="node">
<title>ToolbarModule</title>
<polygon fill="#8dd3c7" stroke="black" points="127.87,-84.8 124.87,-88.8 103.87,-88.8 100.87,-84.8 24.13,-84.8 24.13,-48.8 127.87,-48.8 127.87,-84.8"/>
<text text-anchor="middle" x="76" y="-62.6" font-family="Times,serif" font-size="14.00">ToolbarModule</text>
</g>
<!-- ToolbarModule&#45;&gt;HomeModule -->
<g id="edge5" class="edge">
<title>ToolbarModule&#45;&gt;HomeModule</title>
<path fill="none" stroke="black" d="M76,-85.08C76,-106.12 76,-137.8 76,-137.8 76,-137.8 311.09,-137.8 311.09,-137.8"/>
<polygon fill="black" stroke="black" points="311.09,-141.3 321.09,-137.8 311.09,-134.3 311.09,-141.3"/>
</g>
</g>
</svg>
