<?xml version="1.0" encoding="UTF-8" standalone="no"?>
<!DOCTYPE svg PUBLIC "-//W3C//DTD SVG 1.1//EN"
 "http://www.w3.org/Graphics/SVG/1.1/DTD/svg11.dtd">
<!-- Generated by graphviz version 2.47.3 (20210619.1520)
 -->
<!-- Title: dependencies Pages: 1 -->
<svg width="970pt" height="247pt"
 viewBox="0.00 0.00 970.00 246.80" xmlns="http://www.w3.org/2000/svg" xmlns:xlink="http://www.w3.org/1999/xlink">
<g id="graph0" class="graph" transform="scale(1 1) rotate(0) translate(4 242.8)">
<title>dependencies</title>
<polygon fill="white" stroke="transparent" points="-4,4 -4,-242.8 966,-242.8 966,4 -4,4"/>
<text text-anchor="middle" x="481" y="-8.2" font-family="sans-serif" font-size="14.00">dependencies</text>
<g id="clust1" class="cluster">
<title>cluster_ToolbarMenuModule</title>
<polygon fill="none" stroke="black" stroke-dasharray="1,5" points="8,-32.8 8,-230.8 954,-230.8 954,-32.8 8,-32.8"/>
</g>
<g id="clust2" class="cluster">
<title>cluster_ToolbarMenuModule_declarations</title>
<polygon fill="none" stroke="black" points="772,-40.8 772,-92.8 946,-92.8 946,-40.8 772,-40.8"/>
</g>
<g id="clust4" class="cluster">
<title>cluster_ToolbarMenuModule_imports</title>
<polygon fill="none" stroke="black" points="16,-40.8 16,-92.8 764,-92.8 764,-40.8 16,-40.8"/>
</g>
<g id="clust5" class="cluster">
<title>cluster_ToolbarMenuModule_exports</title>
<polygon fill="none" stroke="black" points="448,-170.8 448,-222.8 626,-222.8 626,-170.8 448,-170.8"/>
</g>
<!-- ToolbarMenuComponent -->
<g id="node1" class="node">
<title>ToolbarMenuComponent</title>
<polygon fill="#ffffb3" stroke="black" points="938.31,-84.8 779.69,-84.8 779.69,-48.8 938.31,-48.8 938.31,-84.8"/>
<text text-anchor="middle" x="859" y="-62.6" font-family="Times,serif" font-size="14.00">ToolbarMenuComponent</text>
</g>
<!-- ToolbarMenuModule -->
<g id="node2" class="node">
<title>ToolbarMenuModule</title>
<polygon fill="#8dd3c7" stroke="black" points="605.03,-149.8 602.03,-153.8 581.03,-153.8 578.03,-149.8 468.97,-149.8 468.97,-113.8 605.03,-113.8 605.03,-149.8"/>
<text text-anchor="middle" x="537" y="-127.6" font-family="Times,serif" font-size="14.00">ToolbarMenuModule</text>
</g>
<!-- ToolbarMenuComponent&#45;&gt;ToolbarMenuModule -->
<g id="edge1" class="edge">
<title>ToolbarMenuComponent&#45;&gt;ToolbarMenuModule</title>
<path fill="none" stroke="black" d="M859,-84.91C859,-104.14 859,-131.8 859,-131.8 859,-131.8 615.29,-131.8 615.29,-131.8"/>
<polygon fill="black" stroke="black" points="615.29,-128.3 605.29,-131.8 615.29,-135.3 615.29,-128.3"/>
</g>
<!-- ToolbarMenuComponent  -->
<g id="node6" class="node">
<title>ToolbarMenuComponent </title>
<polygon fill="#fb8072" stroke="black" points="617.81,-214.8 456.19,-214.8 456.19,-178.8 617.81,-178.8 617.81,-214.8"/>
<text text-anchor="middle" x="537" y="-192.6" font-family="Times,serif" font-size="14.00">ToolbarMenuComponent </text>
</g>
<!-- ToolbarMenuModule&#45;&gt;ToolbarMenuComponent  -->
<g id="edge5" class="edge">
<title>ToolbarMenuModule&#45;&gt;ToolbarMenuComponent </title>
<path fill="none" stroke="black" stroke-dasharray="5,2" d="M537,-149.91C537,-149.91 537,-168.79 537,-168.79"/>
<polygon fill="black" stroke="black" points="533.5,-168.79 537,-178.79 540.5,-168.79 533.5,-168.79"/>
</g>
<!-- ToolbarLanguageSelectModule -->
<g id="node3" class="node">
<title>ToolbarLanguageSelectModule</title>
<polygon fill="#8dd3c7" stroke="black" points="755.77,-84.8 752.77,-88.8 731.77,-88.8 728.77,-84.8 562.23,-84.8 562.23,-48.8 755.77,-48.8 755.77,-84.8"/>
<text text-anchor="middle" x="659" y="-62.6" font-family="Times,serif" font-size="14.00">ToolbarLanguageSelectModule</text>
</g>
<!-- ToolbarLanguageSelectModule&#45;&gt;ToolbarMenuModule -->
<g id="edge2" class="edge">
<title>ToolbarLanguageSelectModule&#45;&gt;ToolbarMenuModule</title>
<path fill="none" stroke="black" d="M583.81,-84.91C583.81,-84.91 583.81,-103.79 583.81,-103.79"/>
<polygon fill="black" stroke="black" points="580.31,-103.79 583.81,-113.79 587.31,-103.79 580.31,-103.79"/>
</g>
<!-- ToolbarMenuDeviceSettingsModalModule -->
<g id="node4" class="node">
<title>ToolbarMenuDeviceSettingsModalModule</title>
<polygon fill="#8dd3c7" stroke="black" points="543.83,-84.8 540.83,-88.8 519.83,-88.8 516.83,-84.8 286.17,-84.8 286.17,-48.8 543.83,-48.8 543.83,-84.8"/>
<text text-anchor="middle" x="415" y="-62.6" font-family="Times,serif" font-size="14.00">ToolbarMenuDeviceSettingsModalModule</text>
</g>
<!-- ToolbarMenuDeviceSettingsModalModule&#45;&gt;ToolbarMenuModule -->
<g id="edge3" class="edge">
<title>ToolbarMenuDeviceSettingsModalModule&#45;&gt;ToolbarMenuModule</title>
<path fill="none" stroke="black" d="M506.33,-84.91C506.33,-84.91 506.33,-103.79 506.33,-103.79"/>
<polygon fill="black" stroke="black" points="502.83,-103.79 506.33,-113.79 509.83,-103.79 502.83,-103.79"/>
</g>
<!-- ToolbarMenuUserSettingsModalModule -->
<g id="node5" class="node">
<title>ToolbarMenuUserSettingsModalModule</title>
<polygon fill="#8dd3c7" stroke="black" points="268.12,-84.8 265.12,-88.8 244.12,-88.8 241.12,-84.8 23.88,-84.8 23.88,-48.8 268.12,-48.8 268.12,-84.8"/>
<text text-anchor="middle" x="146" y="-62.6" font-family="Times,serif" font-size="14.00">ToolbarMenuUserSettingsModalModule</text>
</g>
<!-- ToolbarMenuUserSettingsModalModule&#45;&gt;ToolbarMenuModule -->
<g id="edge4" class="edge">
<title>ToolbarMenuUserSettingsModalModule&#45;&gt;ToolbarMenuModule</title>
<path fill="none" stroke="black" d="M146,-84.91C146,-104.14 146,-131.8 146,-131.8 146,-131.8 458.89,-131.8 458.89,-131.8"/>
<polygon fill="black" stroke="black" points="458.89,-135.3 468.89,-131.8 458.89,-128.3 458.89,-135.3"/>
</g>
</g>
</svg>
