<?xml version="1.0" encoding="UTF-8" standalone="no"?>
<!DOCTYPE svg PUBLIC "-//W3C//DTD SVG 1.1//EN"
 "http://www.w3.org/Graphics/SVG/1.1/DTD/svg11.dtd">
<!-- Generated by graphviz version 2.47.3 (20210619.1520)
 -->
<!-- Title: dependencies Pages: 1 -->
<svg width="921pt" height="174pt"
 viewBox="0.00 0.00 921.00 173.80" xmlns="http://www.w3.org/2000/svg" xmlns:xlink="http://www.w3.org/1999/xlink">
<g id="graph0" class="graph" transform="scale(1 1) rotate(0) translate(4 169.8)">
<title>dependencies</title>
<polygon fill="white" stroke="transparent" points="-4,4 -4,-169.8 917,-169.8 917,4 -4,4"/>
<text text-anchor="middle" x="456.5" y="-8.2" font-family="sans-serif" font-size="14.00">dependencies</text>
<g id="clust1" class="cluster">
<title>cluster_RegisterModule</title>
<polygon fill="none" stroke="black" stroke-dasharray="1,5" points="8,-32.8 8,-157.8 905,-157.8 905,-32.8 8,-32.8"/>
</g>
<g id="clust2" class="cluster">
<title>cluster_RegisterModule_declarations</title>
<polygon fill="none" stroke="black" points="753,-40.8 753,-92.8 897,-92.8 897,-40.8 753,-40.8"/>
</g>
<g id="clust4" class="cluster">
<title>cluster_RegisterModule_imports</title>
<polygon fill="none" stroke="black" points="16,-40.8 16,-92.8 745,-92.8 745,-40.8 16,-40.8"/>
</g>
<!-- RegisterComponent -->
<g id="node1" class="node">
<title>RegisterComponent</title>
<polygon fill="#ffffb3" stroke="black" points="888.98,-84.8 761.02,-84.8 761.02,-48.8 888.98,-48.8 888.98,-84.8"/>
<text text-anchor="middle" x="825" y="-62.6" font-family="Times,serif" font-size="14.00">RegisterComponent</text>
</g>
<!-- RegisterModule -->
<g id="node2" class="node">
<title>RegisterModule</title>
<polygon fill="#8dd3c7" stroke="black" points="504.2,-149.8 501.2,-153.8 480.2,-153.8 477.2,-149.8 397.8,-149.8 397.8,-113.8 504.2,-113.8 504.2,-149.8"/>
<text text-anchor="middle" x="451" y="-127.6" font-family="Times,serif" font-size="14.00">RegisterModule</text>
</g>
<!-- RegisterComponent&#45;&gt;RegisterModule -->
<g id="edge1" class="edge">
<title>RegisterComponent&#45;&gt;RegisterModule</title>
<path fill="none" stroke="black" d="M825,-85.08C825,-106.12 825,-137.8 825,-137.8 825,-137.8 514.19,-137.8 514.19,-137.8"/>
<polygon fill="black" stroke="black" points="514.19,-134.3 504.19,-137.8 514.19,-141.3 514.19,-134.3"/>
</g>
<!-- DatePickerModule -->
<g id="node3" class="node">
<title>DatePickerModule</title>
<polygon fill="#8dd3c7" stroke="black" points="736.74,-84.8 733.74,-88.8 712.74,-88.8 709.74,-84.8 615.26,-84.8 615.26,-48.8 736.74,-48.8 736.74,-84.8"/>
<text text-anchor="middle" x="676" y="-62.6" font-family="Times,serif" font-size="14.00">DatePickerModule</text>
</g>
<!-- DatePickerModule&#45;&gt;RegisterModule -->
<g id="edge2" class="edge">
<title>DatePickerModule&#45;&gt;RegisterModule</title>
<path fill="none" stroke="black" d="M676,-84.82C676,-102.17 676,-125.8 676,-125.8 676,-125.8 514.32,-125.8 514.32,-125.8"/>
<polygon fill="black" stroke="black" points="514.32,-122.3 504.32,-125.8 514.32,-129.3 514.32,-122.3"/>
</g>
<!-- PasswordInputModule -->
<g id="node4" class="node">
<title>PasswordInputModule</title>
<polygon fill="#8dd3c7" stroke="black" points="597.25,-84.8 594.25,-88.8 573.25,-88.8 570.25,-84.8 454.75,-84.8 454.75,-48.8 597.25,-48.8 597.25,-84.8"/>
<text text-anchor="middle" x="526" y="-62.6" font-family="Times,serif" font-size="14.00">PasswordInputModule</text>
</g>
<!-- PasswordInputModule&#45;&gt;RegisterModule -->
<g id="edge3" class="edge">
<title>PasswordInputModule&#45;&gt;RegisterModule</title>
<path fill="none" stroke="black" d="M479.36,-84.91C479.36,-84.91 479.36,-103.79 479.36,-103.79"/>
<polygon fill="black" stroke="black" points="475.86,-103.79 479.36,-113.79 482.86,-103.79 475.86,-103.79"/>
</g>
<!-- RangeItemModule -->
<g id="node5" class="node">
<title>RangeItemModule</title>
<polygon fill="#8dd3c7" stroke="black" points="436.47,-84.8 433.47,-88.8 412.47,-88.8 409.47,-84.8 315.53,-84.8 315.53,-48.8 436.47,-48.8 436.47,-84.8"/>
<text text-anchor="middle" x="376" y="-62.6" font-family="Times,serif" font-size="14.00">RangeItemModule</text>
</g>
<!-- RangeItemModule&#45;&gt;RegisterModule -->
<g id="edge4" class="edge">
<title>RangeItemModule&#45;&gt;RegisterModule</title>
<path fill="none" stroke="black" d="M417.19,-84.91C417.19,-84.91 417.19,-103.79 417.19,-103.79"/>
<polygon fill="black" stroke="black" points="413.69,-103.79 417.19,-113.79 420.69,-103.79 413.69,-103.79"/>
</g>
<!-- RegisterRoutingModule -->
<g id="node6" class="node">
<title>RegisterRoutingModule</title>
<polygon fill="#8dd3c7" stroke="black" points="297.82,-84.8 294.82,-88.8 273.82,-88.8 270.82,-84.8 146.18,-84.8 146.18,-48.8 297.82,-48.8 297.82,-84.8"/>
<text text-anchor="middle" x="222" y="-62.6" font-family="Times,serif" font-size="14.00">RegisterRoutingModule</text>
</g>
<!-- RegisterRoutingModule&#45;&gt;RegisterModule -->
<g id="edge5" class="edge">
<title>RegisterRoutingModule&#45;&gt;RegisterModule</title>
<path fill="none" stroke="black" d="M222,-84.82C222,-102.17 222,-125.8 222,-125.8 222,-125.8 387.89,-125.8 387.89,-125.8"/>
<polygon fill="black" stroke="black" points="387.89,-129.3 397.89,-125.8 387.89,-122.3 387.89,-129.3"/>
</g>
<!-- ToolbarModule -->
<g id="node7" class="node">
<title>ToolbarModule</title>
<polygon fill="#8dd3c7" stroke="black" points="127.87,-84.8 124.87,-88.8 103.87,-88.8 100.87,-84.8 24.13,-84.8 24.13,-48.8 127.87,-48.8 127.87,-84.8"/>
<text text-anchor="middle" x="76" y="-62.6" font-family="Times,serif" font-size="14.00">ToolbarModule</text>
</g>
<!-- ToolbarModule&#45;&gt;RegisterModule -->
<g id="edge6" class="edge">
<title>ToolbarModule&#45;&gt;RegisterModule</title>
<path fill="none" stroke="black" d="M76,-85.08C76,-106.12 76,-137.8 76,-137.8 76,-137.8 387.67,-137.8 387.67,-137.8"/>
<polygon fill="black" stroke="black" points="387.67,-141.3 397.67,-137.8 387.67,-134.3 387.67,-141.3"/>
</g>
</g>
</svg>
