<?xml version="1.0" encoding="UTF-8" standalone="no"?>
<!DOCTYPE svg PUBLIC "-//W3C//DTD SVG 1.1//EN"
 "http://www.w3.org/Graphics/SVG/1.1/DTD/svg11.dtd">
<!-- Generated by graphviz version 2.47.3 (20210619.1520)
 -->
<!-- Title: dependencies Pages: 1 -->
<svg width="720pt" height="174pt"
 viewBox="0.00 0.00 720.00 173.80" xmlns="http://www.w3.org/2000/svg" xmlns:xlink="http://www.w3.org/1999/xlink">
<g id="graph0" class="graph" transform="scale(1 1) rotate(0) translate(4 169.8)">
<title>dependencies</title>
<polygon fill="white" stroke="transparent" points="-4,4 -4,-169.8 716,-169.8 716,4 -4,4"/>
<text text-anchor="middle" x="356" y="-8.2" font-family="sans-serif" font-size="14.00">dependencies</text>
<g id="clust1" class="cluster">
<title>cluster_DeviceSetupModule</title>
<polygon fill="none" stroke="black" stroke-dasharray="1,5" points="8,-32.8 8,-157.8 704,-157.8 704,-32.8 8,-32.8"/>
</g>
<g id="clust4" class="cluster">
<title>cluster_DeviceSetupModule_imports</title>
<polygon fill="none" stroke="black" points="192,-40.8 192,-92.8 696,-92.8 696,-40.8 192,-40.8"/>
</g>
<g id="clust2" class="cluster">
<title>cluster_DeviceSetupModule_declarations</title>
<polygon fill="none" stroke="black" points="16,-40.8 16,-92.8 184,-92.8 184,-40.8 16,-40.8"/>
</g>
<!-- DeviceSetupComponent -->
<g id="node1" class="node">
<title>DeviceSetupComponent</title>
<polygon fill="#ffffb3" stroke="black" points="176.36,-84.8 23.64,-84.8 23.64,-48.8 176.36,-48.8 176.36,-84.8"/>
<text text-anchor="middle" x="100" y="-62.6" font-family="Times,serif" font-size="14.00">DeviceSetupComponent</text>
</g>
<!-- DeviceSetupModule -->
<g id="node2" class="node">
<title>DeviceSetupModule</title>
<polygon fill="#8dd3c7" stroke="black" points="395.58,-149.8 392.58,-153.8 371.58,-153.8 368.58,-149.8 264.42,-149.8 264.42,-113.8 395.58,-113.8 395.58,-149.8"/>
<text text-anchor="middle" x="330" y="-127.6" font-family="Times,serif" font-size="14.00">DeviceSetupModule</text>
</g>
<!-- DeviceSetupComponent&#45;&gt;DeviceSetupModule -->
<g id="edge1" class="edge">
<title>DeviceSetupComponent&#45;&gt;DeviceSetupModule</title>
<path fill="none" stroke="black" d="M100,-84.91C100,-104.14 100,-131.8 100,-131.8 100,-131.8 254.4,-131.8 254.4,-131.8"/>
<polygon fill="black" stroke="black" points="254.4,-135.3 264.4,-131.8 254.4,-128.3 254.4,-135.3"/>
</g>
<!-- DeviceSetupRoutingModule -->
<g id="node3" class="node">
<title>DeviceSetupRoutingModule</title>
<polygon fill="#8dd3c7" stroke="black" points="688.2,-84.8 685.2,-88.8 664.2,-88.8 661.2,-84.8 511.8,-84.8 511.8,-48.8 688.2,-48.8 688.2,-84.8"/>
<text text-anchor="middle" x="600" y="-62.6" font-family="Times,serif" font-size="14.00">DeviceSetupRoutingModule</text>
</g>
<!-- DeviceSetupRoutingModule&#45;&gt;DeviceSetupModule -->
<g id="edge2" class="edge">
<title>DeviceSetupRoutingModule&#45;&gt;DeviceSetupModule</title>
<path fill="none" stroke="black" d="M600,-84.91C600,-104.14 600,-131.8 600,-131.8 600,-131.8 405.7,-131.8 405.7,-131.8"/>
<polygon fill="black" stroke="black" points="405.7,-128.3 395.7,-131.8 405.7,-135.3 405.7,-128.3"/>
</g>
<!-- ScannedDeviceItemModule -->
<g id="node4" class="node">
<title>ScannedDeviceItemModule</title>
<polygon fill="#8dd3c7" stroke="black" points="494.27,-84.8 491.27,-88.8 470.27,-88.8 467.27,-84.8 321.73,-84.8 321.73,-48.8 494.27,-48.8 494.27,-84.8"/>
<text text-anchor="middle" x="408" y="-62.6" font-family="Times,serif" font-size="14.00">ScannedDeviceItemModule</text>
</g>
<!-- ScannedDeviceItemModule&#45;&gt;DeviceSetupModule -->
<g id="edge3" class="edge">
<title>ScannedDeviceItemModule&#45;&gt;DeviceSetupModule</title>
<path fill="none" stroke="black" d="M358.7,-84.91C358.7,-84.91 358.7,-103.79 358.7,-103.79"/>
<polygon fill="black" stroke="black" points="355.2,-103.79 358.7,-113.79 362.2,-103.79 355.2,-103.79"/>
</g>
<!-- ToolbarModule -->
<g id="node5" class="node">
<title>ToolbarModule</title>
<polygon fill="#8dd3c7" stroke="black" points="303.87,-84.8 300.87,-88.8 279.87,-88.8 276.87,-84.8 200.13,-84.8 200.13,-48.8 303.87,-48.8 303.87,-84.8"/>
<text text-anchor="middle" x="252" y="-62.6" font-family="Times,serif" font-size="14.00">ToolbarModule</text>
</g>
<!-- ToolbarModule&#45;&gt;DeviceSetupModule -->
<g id="edge4" class="edge">
<title>ToolbarModule&#45;&gt;DeviceSetupModule</title>
<path fill="none" stroke="black" d="M284.2,-84.91C284.2,-84.91 284.2,-103.79 284.2,-103.79"/>
<polygon fill="black" stroke="black" points="280.7,-103.79 284.2,-113.79 287.7,-103.79 280.7,-103.79"/>
</g>
</g>
</svg>
